<mxfile host="app.diagrams.net" agent="Mozilla/5.0 (Macintosh; Intel Mac OS X 10_15_7) AppleWebKit/537.36 (KHTML, like Gecko) Chrome/129.0.0.0 Safari/537.36" version="24.8.0">
  <diagram name="Page-1" id="NpsZVl_OoIWNd78Jf-r5">
    <mxGraphModel dx="984" dy="624" grid="1" gridSize="10" guides="1" tooltips="1" connect="1" arrows="1" fold="1" page="1" pageScale="1" pageWidth="827" pageHeight="1169" math="0" shadow="0">
      <root>
        <mxCell id="0" />
        <mxCell id="1" parent="0" />
        <mxCell id="tQZlUdYurvgVtHewJL-e-4" value="&lt;span style=&quot;font-size: 24px;&quot;&gt;1) Sales_Office( &lt;u&gt;Num&lt;/u&gt;, Location, &lt;font color=&quot;#ff0000&quot;&gt;ID_Fk&lt;/font&gt; )&lt;/span&gt;" style="text;strokeColor=none;align=left;fillColor=none;html=1;verticalAlign=middle;whiteSpace=wrap;rounded=0;" vertex="1" parent="1">
          <mxGeometry width="660" height="30" as="geometry" />
        </mxCell>
        <mxCell id="tQZlUdYurvgVtHewJL-e-5" value="&lt;span style=&quot;font-size: 24px;&quot;&gt;2) Employee( &lt;u&gt;ID&lt;/u&gt;, Name, &lt;font color=&quot;#ff0000&quot;&gt;Num_Fk&lt;/font&gt; )&lt;/span&gt;" style="text;strokeColor=none;align=left;fillColor=none;html=1;verticalAlign=middle;whiteSpace=wrap;rounded=0;" vertex="1" parent="1">
          <mxGeometry x="1" y="80" width="660" height="30" as="geometry" />
        </mxCell>
        <mxCell id="tQZlUdYurvgVtHewJL-e-8" value="&lt;span style=&quot;font-size: 24px;&quot;&gt;5) Property_Location( &lt;u&gt;&lt;font color=&quot;#ff0000&quot;&gt;ID_Fk&lt;/font&gt;, Add, City, State, Zip&lt;/u&gt; )&lt;/span&gt;" style="text;strokeColor=none;align=left;fillColor=none;html=1;verticalAlign=middle;whiteSpace=wrap;rounded=0;" vertex="1" parent="1">
          <mxGeometry y="320" width="660" height="30" as="geometry" />
        </mxCell>
        <mxCell id="tQZlUdYurvgVtHewJL-e-9" value="&lt;span style=&quot;font-size: 24px;&quot;&gt;6) Property_Owner( &lt;u&gt;&lt;font color=&quot;#ff0000&quot;&gt;ID_Fk_Property&lt;/font&gt;, &lt;font color=&quot;#ff0000&quot;&gt;ID_FK_Owner&lt;/font&gt;,&lt;/u&gt;&amp;nbsp;Precent_Owned )&lt;/span&gt;" style="text;strokeColor=none;align=left;fillColor=none;html=1;verticalAlign=middle;whiteSpace=wrap;rounded=0;" vertex="1" parent="1">
          <mxGeometry y="400" width="770" height="30" as="geometry" />
        </mxCell>
        <mxCell id="tQZlUdYurvgVtHewJL-e-7" value="&lt;span style=&quot;font-size: 24px;&quot;&gt;4) Property( &lt;u&gt;ID&lt;/u&gt;, &lt;font color=&quot;#ff0000&quot;&gt;Num_FK&lt;/font&gt; )&lt;/span&gt;" style="text;strokeColor=none;align=left;fillColor=none;html=1;verticalAlign=middle;whiteSpace=wrap;rounded=0;" vertex="1" parent="1">
          <mxGeometry y="240" width="660" height="30" as="geometry" />
        </mxCell>
        <mxCell id="tQZlUdYurvgVtHewJL-e-19" value="" style="curved=1;endArrow=classic;html=1;rounded=0;exitX=0.25;exitY=0;exitDx=0;exitDy=0;entryX=0.591;entryY=1;entryDx=0;entryDy=0;entryPerimeter=0;" edge="1" parent="1" source="tQZlUdYurvgVtHewJL-e-5" target="tQZlUdYurvgVtHewJL-e-4">
          <mxGeometry width="50" height="50" relative="1" as="geometry">
            <mxPoint x="160" y="70" as="sourcePoint" />
            <mxPoint x="390" y="40" as="targetPoint" />
            <Array as="points">
              <mxPoint x="360" y="70" />
            </Array>
          </mxGeometry>
        </mxCell>
        <mxCell id="tQZlUdYurvgVtHewJL-e-6" value="&lt;span style=&quot;font-size: 24px;&quot;&gt;3) Owner( &lt;u&gt;ID&lt;/u&gt;, Name )&lt;/span&gt;" style="text;strokeColor=none;align=left;fillColor=none;html=1;verticalAlign=middle;whiteSpace=wrap;rounded=0;" vertex="1" parent="1">
          <mxGeometry y="160" width="660" height="30" as="geometry" />
        </mxCell>
        <mxCell id="tQZlUdYurvgVtHewJL-e-21" value="" style="curved=1;endArrow=classic;html=1;rounded=0;exitX=0.292;exitY=0.967;exitDx=0;exitDy=0;exitPerimeter=0;entryX=0.5;entryY=0;entryDx=0;entryDy=0;" edge="1" parent="1" source="tQZlUdYurvgVtHewJL-e-4" target="tQZlUdYurvgVtHewJL-e-5">
          <mxGeometry width="50" height="50" relative="1" as="geometry">
            <mxPoint x="176" y="90" as="sourcePoint" />
            <mxPoint x="330" y="70" as="targetPoint" />
            <Array as="points">
              <mxPoint x="310" y="40" />
            </Array>
          </mxGeometry>
        </mxCell>
        <mxCell id="tQZlUdYurvgVtHewJL-e-22" value="" style="curved=1;endArrow=classic;html=1;rounded=0;exitX=0.317;exitY=1.033;exitDx=0;exitDy=0;exitPerimeter=0;" edge="1" parent="1" source="tQZlUdYurvgVtHewJL-e-4">
          <mxGeometry width="50" height="50" relative="1" as="geometry">
            <mxPoint x="210" y="44" as="sourcePoint" />
            <mxPoint x="250" y="230" as="targetPoint" />
            <Array as="points">
              <mxPoint x="690" y="100" />
            </Array>
          </mxGeometry>
        </mxCell>
        <mxCell id="tQZlUdYurvgVtHewJL-e-25" value="" style="curved=1;endArrow=classic;html=1;rounded=0;exitX=0.224;exitY=1;exitDx=0;exitDy=0;exitPerimeter=0;" edge="1" parent="1" source="tQZlUdYurvgVtHewJL-e-7">
          <mxGeometry width="50" height="50" relative="1" as="geometry">
            <mxPoint x="150" y="280" as="sourcePoint" />
            <mxPoint x="260" y="310" as="targetPoint" />
            <Array as="points">
              <mxPoint x="210" y="280" />
              <mxPoint x="240" y="290" />
            </Array>
          </mxGeometry>
        </mxCell>
        <mxCell id="tQZlUdYurvgVtHewJL-e-26" value="" style="curved=1;endArrow=classic;html=1;rounded=0;entryX=0.386;entryY=-0.133;entryDx=0;entryDy=0;entryPerimeter=0;" edge="1" parent="1" target="tQZlUdYurvgVtHewJL-e-9">
          <mxGeometry width="50" height="50" relative="1" as="geometry">
            <mxPoint x="150" y="270" as="sourcePoint" />
            <mxPoint x="690" y="340" as="targetPoint" />
            <Array as="points">
              <mxPoint x="600" y="270" />
              <mxPoint x="590" y="370" />
            </Array>
          </mxGeometry>
        </mxCell>
        <mxCell id="tQZlUdYurvgVtHewJL-e-27" value="" style="curved=1;endArrow=classic;html=1;rounded=0;entryX=0.631;entryY=-0.133;entryDx=0;entryDy=0;entryPerimeter=0;" edge="1" parent="1">
          <mxGeometry width="50" height="50" relative="1" as="geometry">
            <mxPoint x="130" y="190" as="sourcePoint" />
            <mxPoint x="485.8699999999999" y="397.01" as="targetPoint" />
            <Array as="points">
              <mxPoint x="590" y="190" />
              <mxPoint x="710" y="350" />
            </Array>
          </mxGeometry>
        </mxCell>
      </root>
    </mxGraphModel>
  </diagram>
</mxfile>
